<svg xmlns="http://www.w3.org/2000/svg" viewBox="0 0 156.28 150">
  <defs>
    <style>
      .cls-1 {
        fill: #fff;
      }
    </style>
  </defs>
  <g id="_026-devices" data-name="026-devices" transform="translate(0 -10.287)">
    <g id="Group_36" data-name="Group 36" transform="translate(68.303 115.649)">
      <g id="Group_35" data-name="Group 35">
        <path id="Path_51" data-name="Path 51" class="cls-1" d="M227.367,355.471h-1.305a2.289,2.289,0,1,0,0,4.578h1.305a2.289,2.289,0,1,0,0-4.578Z" transform="translate(-223.773 -355.471)"/>
      </g>
    </g>
    <g id="Group_38" data-name="Group 38" transform="translate(130.244 147.81)">
      <g id="Group_37" data-name="Group 37">
        <path id="Path_52" data-name="Path 52" class="cls-1" d="M430.3,460.837h-1.305a2.289,2.289,0,1,0,0,4.578H430.3a2.289,2.289,0,0,0,0-4.578Z" transform="translate(-426.702 -460.837)"/>
      </g>
    </g>
    <g id="Group_40" data-name="Group 40" transform="translate(120.975 103.791)">
      <g id="Group_39" data-name="Group 39" transform="translate(0 0)">
        <path id="Path_53" data-name="Path 53" class="cls-1" d="M418.467,316.622H398.625a2.289,2.289,0,1,0,0,4.578h19.842a2.289,2.289,0,1,0,0-4.578Z" transform="translate(-396.336 -316.622)"/>
      </g>
    </g>
    <g id="Group_42" data-name="Group 42" transform="translate(120.975 114.998)">
      <g id="Group_41" data-name="Group 41">
        <path id="Path_54" data-name="Path 54" class="cls-1" d="M418.467,353.338H398.625a2.289,2.289,0,1,0,0,4.578h19.842a2.289,2.289,0,1,0,0-4.578Z" transform="translate(-396.336 -353.338)"/>
      </g>
    </g>
    <g id="Group_44" data-name="Group 44" transform="translate(120.975 126.206)">
      <g id="Group_43" data-name="Group 43">
        <path id="Path_55" data-name="Path 55" class="cls-1" d="M418.467,390.057H398.625a2.289,2.289,0,1,0,0,4.579h19.842a2.289,2.289,0,1,0,0-4.579Z" transform="translate(-396.336 -390.057)"/>
      </g>
    </g>
    <g id="Group_46" data-name="Group 46" transform="translate(25.551 67.873)">
      <g id="Group_45" data-name="Group 45" transform="translate(0 0)">
        <path id="Path_56" data-name="Path 56" class="cls-1" d="M170.541,198.95H86a2.289,2.289,0,0,0,0,4.579h84.541a2.289,2.289,0,1,0,0-4.579Z" transform="translate(-83.711 -198.95)"/>
      </g>
    </g>
    <g id="Group_48" data-name="Group 48" transform="translate(25.551 44.096)">
      <g id="Group_47" data-name="Group 47">
        <path id="Path_57" data-name="Path 57" class="cls-1" d="M168.745,121.052H87.794a4.089,4.089,0,0,0-4.084,4.085v8.681a4.089,4.089,0,0,0,4.084,4.085h80.951a4.089,4.089,0,0,0,4.084-4.085v-8.681A4.09,4.09,0,0,0,168.745,121.052Zm-.494,12.271H88.289v-7.692h79.962Z" transform="translate(-83.71 -121.052)"/>
      </g>
    </g>
    <g id="Group_50" data-name="Group 50" transform="translate(0 10.287)">
      <g id="Group_49" data-name="Group 49" transform="translate(0 0)">
        <path id="Path_58" data-name="Path 58" class="cls-1" d="M153.99,116.3a2.289,2.289,0,0,0,2.289-2.289V84.014a5.134,5.134,0,0,0-5.129-5.129h-8.662V17.541a7.262,7.262,0,0,0-7.254-7.254H7.254A7.262,7.262,0,0,0,0,17.541V124.833a7.267,7.267,0,0,0,7.254,7.254h47.44v12.395H47.617a6.474,6.474,0,0,0-6.467,6.467v2.872a6.474,6.474,0,0,0,6.467,6.467H65.9a2.289,2.289,0,1,0,0-4.579H47.617a1.89,1.89,0,0,1-1.888-1.888v-2.872a1.89,1.89,0,0,1,1.888-1.888h45.95a1.89,1.89,0,0,1,1.888,1.888v2.872a1.89,1.89,0,0,1-1.888,1.888H76.587a2.289,2.289,0,1,0,0,4.579h16.98a6.474,6.474,0,0,0,6.467-6.467v-2.872a6.474,6.474,0,0,0-6.467-6.467H86.49V132.087h23.6v23.072a5.134,5.134,0,0,0,5.129,5.129h35.931a5.134,5.134,0,0,0,5.129-5.129V124.691a2.289,2.289,0,0,0-4.579,0v14.633h-37.03V96.555H151.7v17.452A2.289,2.289,0,0,0,153.99,116.3ZM114.671,143.9H151.7v11.256a.55.55,0,0,1-.55.55H115.221a.55.55,0,0,1-.55-.55ZM4.579,17.541a2.679,2.679,0,0,1,2.675-2.675H135.236a2.678,2.678,0,0,1,2.675,2.675V78.885h-5.625V26.352a5.237,5.237,0,0,0-5.231-5.231H15.435A5.237,5.237,0,0,0,10.2,26.352v77.439H4.579V17.541Zm123.128,8.811V33H27.846V25.7h99.209A.653.653,0,0,1,127.707,26.352ZM23.267,25.7V33H14.783V26.352a.653.653,0,0,1,.652-.652h7.832ZM81.911,144.481H59.272V132.086H81.911Zm28.181-16.974H7.254a2.688,2.688,0,0,1-2.675-2.676V108.369H110.092v19.138Zm3.193-48.24a2.281,2.281,0,0,0-.9-.186H27.841a2.289,2.289,0,0,0,0,4.579H110.11c-.008.118-.018.234-.018.354v6.275H27.841a2.289,2.289,0,1,0,0,4.579h82.251v8.923H14.783V37.58H127.707V78.885H115.221A5.109,5.109,0,0,0,113.285,79.267Zm1.386,12.708V84.014a.55.55,0,0,1,.55-.55h35.931a.55.55,0,0,1,.55.55v7.962Z" transform="translate(0 -10.287)"/>
      </g>
    </g>
  </g>
</svg>
