<svg id="dribbble" xmlns="http://www.w3.org/2000/svg" viewBox="0 0 28.8 28.8">
  <defs>
    <style>
      .cls-1 {
        fill: #fff;
      }
    </style>
  </defs>
  <g id="Group_6" data-name="Group 6">
    <g id="Group_5" data-name="Group 5">
      <path id="Path_7" data-name="Path 7" class="cls-1" d="M14.4,0A14.4,14.4,0,1,0,28.8,14.4,14.413,14.413,0,0,0,14.4,0Zm0,27A12.6,12.6,0,1,1,27,14.4,12.615,12.615,0,0,1,14.4,27Z"/>
    </g>
  </g>
  <g id="Group_8" data-name="Group 8" transform="translate(12.195 3.6)">
    <g id="Group_7" data-name="Group 7">
      <path id="Path_8" data-name="Path 8" class="cls-1" d="M219,64a10.94,10.94,0,0,0-2.205.225,51.859,51.859,0,0,1,3.549,5.794,25.439,25.439,0,0,0,5.552-3.538A10.806,10.806,0,0,0,219,64Z" transform="translate(-216.8 -64)"/>
    </g>
  </g>
  <g id="Group_10" data-name="Group 10" transform="translate(16.521 7.358)">
    <g id="Group_9" data-name="Group 9">
      <path id="Path_9" data-name="Path 9" class="cls-1" d="M299.752,130.8a27.354,27.354,0,0,1-6.052,3.864q.709,1.477,1.322,3a20.259,20.259,0,0,1,7.346-.129A10.771,10.771,0,0,0,299.752,130.8Z" transform="translate(-293.7 -130.8)"/>
    </g>
  </g>
  <g id="Group_12" data-name="Group 12" transform="translate(3.887 4.382)">
    <g id="Group_11" data-name="Group 11">
      <path id="Path_10" data-name="Path 10" class="cls-1" d="M75.6,77.9a10.8,10.8,0,0,0-6.5,7.582,25.412,25.412,0,0,0,10.176-1.665A48.871,48.871,0,0,0,75.6,77.9Z" transform="translate(-69.1 -77.9)"/>
    </g>
  </g>
  <g id="Group_14" data-name="Group 14" transform="translate(3.6 11.931)">
    <g id="Group_13" data-name="Group 13">
      <path id="Path_11" data-name="Path 11" class="cls-1" d="M75.267,212.1a27.082,27.082,0,0,1-9.833,1.879c-.467,0-.934-.028-1.4-.056-.011.214-.034.427-.034.647a10.783,10.783,0,0,0,2.543,6.958,20.265,20.265,0,0,1,9.939-6.688C76.111,213.917,75.7,213.006,75.267,212.1Z" transform="translate(-64 -212.1)"/>
    </g>
  </g>
  <g id="Group_16" data-name="Group 16" transform="translate(18.501 15.612)">
    <g id="Group_15" data-name="Group 15">
      <path id="Path_12" data-name="Path 12" class="cls-1" d="M328.9,277.856a50.912,50.912,0,0,1,2.025,7.363,10.792,10.792,0,0,0,4.562-7.4A18.505,18.505,0,0,0,328.9,277.856Z" transform="translate(-328.9 -277.543)"/>
    </g>
  </g>
  <g id="Group_18" data-name="Group 18" transform="translate(7.425 16.346)">
    <g id="Group_17" data-name="Group 17">
      <path id="Path_13" data-name="Path 13" class="cls-1" d="M141.309,290.6A18.408,18.408,0,0,0,132,296.889a10.753,10.753,0,0,0,11.452,1.586A49.057,49.057,0,0,0,141.309,290.6Z" transform="translate(-132 -290.6)"/>
    </g>
  </g>
</svg>
