<svg id="github" xmlns="http://www.w3.org/2000/svg" viewBox="0 0 28.803 28.211">
  <defs>
    <style>
      .cls-1 {
        fill: #fff;
      }
    </style>
  </defs>
  <g id="Group_4" data-name="Group 4" transform="translate(0 0)">
    <path id="Path_4" data-name="Path 4" class="cls-1" d="M14.4,5.3A14.471,14.471,0,0,0,9.851,33.485c.72.135.984-.315.984-.7,0-.343-.011-1.255-.023-2.458-4.005.866-4.849-1.941-4.849-1.941a3.814,3.814,0,0,0-1.6-2.115c-1.311-.894.1-.878.1-.878a3.02,3.02,0,0,1,2.205,1.491,3.055,3.055,0,0,0,4.191,1.2,3.082,3.082,0,0,1,.917-1.935c-3.2-.366-6.56-1.6-6.56-7.145A5.6,5.6,0,0,1,6.7,15.122,5.2,5.2,0,0,1,6.841,11.3s1.21-.388,3.96,1.48a13.733,13.733,0,0,1,3.606-.484,13.568,13.568,0,0,1,3.606.489c2.745-1.873,3.955-1.48,3.955-1.48a5.216,5.216,0,0,1,.146,3.825,5.6,5.6,0,0,1,1.48,3.882c0,5.553-3.364,6.773-6.576,7.133A3.452,3.452,0,0,1,18,28.821c0,1.935-.017,3.494-.017,3.966,0,.388.259.838.99.7A14.474,14.474,0,0,0,14.4,5.3Z" transform="translate(0 -5.3)"/>
  </g>
</svg>
