<svg xmlns="http://www.w3.org/2000/svg" viewBox="0 0 114.507 150">
  <defs>
    <style>
      .cls-1 {
        fill: #fff;
      }
    </style>
  </defs>
  <g id="interactivity" transform="translate(-60.575)">
    <g id="Group_52" data-name="Group 52" transform="translate(60.575)">
      <g id="Group_51" data-name="Group 51" transform="translate(0)">
        <path id="Path_59" data-name="Path 59" class="cls-1" d="M157.885,59.456h0a8.739,8.739,0,1,0,0-4.4H126.357c-.012-.053-.024-.106-.037-.159l27.3-15.763a8.774,8.774,0,0,0,6.236,2.6,8.738,8.738,0,1,0-8.44-6.415l-27.186,15.7q-.08-.086-.161-.169l4.837-8.377a2.2,2.2,0,0,0-3.813-2.2l-4.8,8.306c-.089-.026-.178-.053-.269-.076V17.2a8.74,8.74,0,1,0-4.4,0V48.5c-.09.023-.179.05-.268.076L99.707,21.464a8.708,8.708,0,1,0-6.121,2.519,8.627,8.627,0,0,0,2.309-.316l15.692,27.18q-.082.083-.161.169L84.24,35.32a8.747,8.747,0,1,0-2.2,3.812l27.3,15.763c-.013.053-.025.106-.037.159H77.772a8.74,8.74,0,1,0,0,4.4h31.683c.008.026.014.052.022.078L82.038,75.376a8.739,8.739,0,1,0,2.2,3.813l25.921-14.966a7.741,7.741,0,0,0-.088,1.158v.9L95.9,90.842a8.741,8.741,0,1,0-2.338,17.17,8.8,8.8,0,0,0,2.276-.3,8.682,8.682,0,0,0,5.307-4.072,8.8,8.8,0,0,0,.819-1.91,66.508,66.508,0,0,1,9.572,17.3,24.157,24.157,0,0,0,10.3,12.128L120.6,147.634A2.2,2.2,0,0,0,122.8,150h24.461a2.2,2.2,0,0,0,2.2-2.366l-1.231-16.483A24.23,24.23,0,0,0,159,117.617a2.2,2.2,0,1,0-4.209-1.291,19.9,19.9,0,0,1-9.891,11.638,2.2,2.2,0,0,0-1.179,2.117l1.159,15.517H125.169l1.162-15.517a2.2,2.2,0,0,0-1.179-2.117,19.878,19.878,0,0,1-9.5-10.5A70.449,70.449,0,0,0,104.79,98.208l-.7-.866a3.131,3.131,0,0,1,.558-3.848,2.994,2.994,0,0,1,3.779-.514,4.867,4.867,0,0,1,1.875,2.005,2.2,2.2,0,0,0,4.154-1.016l.018-28.586a3.453,3.453,0,0,1,1.137-2.548,3.41,3.41,0,0,1,2.651-.88,3.544,3.544,0,0,1,3.1,3.558v27.96a2.2,2.2,0,1,0,4.4,0v-8.8a3.623,3.623,0,0,1,3.611-3.445,3.449,3.449,0,0,1,3.445,3.445s0,.008,0,.011v8.785a2.2,2.2,0,1,0,4.4,0V84.757c0-.027,0-.053,0-.08a3.444,3.444,0,0,1,6.848-.521l.024,9.317a2.2,2.2,0,1,0,4.4,0V87.909a3.336,3.336,0,0,1,3.345-2.885h.373a3.321,3.321,0,0,1,3.369,3.262v13.622a2.2,2.2,0,1,0,4.4,0V90.249a8.8,8.8,0,0,0,2.107-.3,8.74,8.74,0,1,0-8.486-14.577l-27.44-15.842c.008-.025.014-.052.022-.078h31.682Zm8.458-6.538a4.336,4.336,0,1,1-4.337,4.336A4.341,4.341,0,0,1,166.343,52.917Zm-8.668-23.676a4.31,4.31,0,0,1,2.161-.583,4.356,4.356,0,0,1,1.129.15,4.336,4.336,0,1,1-3.29.433ZM95.739,18.995A4.336,4.336,0,1,1,93.564,10.9a4.356,4.356,0,0,1,1.129.15,4.337,4.337,0,0,1,1.046,7.944Zm-16.17,16.17a4.336,4.336,0,1,1-4.878-6.357,4.336,4.336,0,0,1,4.878,6.357ZM69.314,61.59a4.336,4.336,0,1,1,4.336-4.336A4.341,4.341,0,0,1,69.314,61.59Zm8.668,23.676a4.336,4.336,0,1,1,1.587-5.924A4.307,4.307,0,0,1,77.982,85.266Zm19.345,16.17a4.336,4.336,0,1,1,.433-3.29A4.308,4.308,0,0,1,97.327,101.437ZM99.763,93.1c-.019-.019-.036-.04-.055-.058l.342-.593Q99.891,92.77,99.763,93.1Zm10.294-4.238A7.394,7.394,0,0,0,101.52,90.4a8,8,0,0,0-1.016,1.268L110.066,75.1ZM113.492,8.74a4.336,4.336,0,1,1,4.336,4.336A4.341,4.341,0,0,1,113.492,8.74Zm8.35,49.847a7.733,7.733,0,0,0-3.155-1.015,7.866,7.866,0,0,0-4.835,1.109,4.3,4.3,0,0,1-.362-1.726,4.336,4.336,0,1,1,8.672,0A4.282,4.282,0,0,1,121.843,58.587Zm34.245,20.756a4.336,4.336,0,1,1,4.878,6.357,4.294,4.294,0,0,1-1.376.137,7.74,7.74,0,0,0-4.07-4.492A4.267,4.267,0,0,1,156.088,79.343ZM125.768,77.7V75.409l1.066,1.846A8.1,8.1,0,0,0,125.768,77.7Zm25.649,1.487a8.527,8.527,0,0,0-.264,1.466,7.794,7.794,0,0,0-3.227,1.017,7.843,7.843,0,0,0-12.9-2.438,7.862,7.862,0,0,0-3.111-1.982L125.769,66.6v-1.09a8.318,8.318,0,0,0-.085-1.182Z" transform="translate(-60.575)"/>
      </g>
    </g>
    <g id="Group_54" data-name="Group 54" transform="translate(132.536 6.496)">
      <g id="Group_53" data-name="Group 53">
        <path id="Path_60" data-name="Path 60" class="cls-1" d="M324.194,28.654a8.74,8.74,0,1,0-14.577,8.486l-3.119,5.4a2.2,2.2,0,1,0,3.813,2.2l3.118-5.4a8.627,8.627,0,0,0,2.309.316,8.8,8.8,0,0,0,2.276-.3,8.739,8.739,0,0,0,6.18-10.7Zm-4.687,4.43a4.336,4.336,0,1,1-4.878-6.357,4.372,4.372,0,0,1,1.129-.15,4.338,4.338,0,0,1,3.748,6.507Z" transform="translate(-306.203 -22.173)"/>
      </g>
    </g>
  </g>
</svg>
