<svg xmlns="http://www.w3.org/2000/svg" viewBox="0 0 150.844 150">
  <defs>
    <style>
      .cls-1 {
        fill: #fff;
      }
    </style>
  </defs>
  <g id="_023-laptop" data-name="023-laptop" transform="translate(0 -1.432)">
    <g id="Group_56" data-name="Group 56" transform="translate(0.001 17.716)">
      <g id="Group_55" data-name="Group 55" transform="translate(0)">
        <path id="Path_61" data-name="Path 61" class="cls-1" d="M149.972,173.656h0a8.672,8.672,0,0,0-7.769-4.882h-3.834a12.43,12.43,0,0,0,2.968-8.069V131.79a2.209,2.209,0,1,0-4.418,0v28.915a8.077,8.077,0,0,1-8.068,8.069H22a8.078,8.078,0,0,1-8.068-8.069V88.047A8.077,8.077,0,0,1,22,79.979H46.8a28.716,28.716,0,0,0-.494,6.315H24.156a4.006,4.006,0,0,0-4,4v67.59a4.658,4.658,0,0,0,4.653,4.653H126.042a4.658,4.658,0,0,0,4.652-4.653V90.947a4.658,4.658,0,0,0-4.652-4.653h-21.5c.019-.618.016-.909.016-.909a29.407,29.407,0,0,0-.507-5.407H128.85a8.077,8.077,0,0,1,8.068,8.068v33.434a2.209,2.209,0,0,0,4.418,0V88.047A12.5,12.5,0,0,0,128.85,75.561H102.858a29.112,29.112,0,0,0-22.072-18.82,2.209,2.209,0,0,0-.808,4.344c24.09,4.483,27.544,37.974,4.719,47.221a3.307,3.307,0,0,0-2.069,3.081v5.177H77.634V96.823H81A5.023,5.023,0,0,0,86.018,91.8V89.54A5.024,5.024,0,0,0,81,84.522H69.85a5.024,5.024,0,0,0-5.018,5.018V91.8a5.023,5.023,0,0,0,5.018,5.018h3.366v19.74H68.222c0-5.79.012-5.448-.031-5.756a3.108,3.108,0,0,0-1.935-2.46C43.357,99.192,46.733,66,70.515,61.158a2.209,2.209,0,0,0-.882-4.33,29.309,29.309,0,0,0-21.61,18.733H22A12.5,12.5,0,0,0,9.513,88.047v72.658a12.431,12.431,0,0,0,2.968,8.069H8.647a8.67,8.67,0,0,0-7.769,4.882c-3.078,6.392,2.179,16.764,12,16.764h125.1C147.833,190.42,153.026,180,149.972,173.656ZM24.573,90.948a.235.235,0,0,1,.235-.235h9.544v7.229H24.573Zm79.507-.234h21.963a.235.235,0,0,1,.234.235v7H101.742A29.047,29.047,0,0,0,104.08,90.714ZM69.85,92.405a.608.608,0,0,1-.6-.6V89.54a.607.607,0,0,1,.6-.6H81a.608.608,0,0,1,.6.6v2.265a.608.608,0,0,1-.6.6Zm-5.129,29.724a1.172,1.172,0,0,1,1.292-1.148H84.837a1.173,1.173,0,0,1,1.292,1.145v1.155a1.163,1.163,0,0,1-1.148,1.145H65.868a1.163,1.163,0,0,1-1.148-1.148Zm15.443,6.716-1.356,2.711a3.782,3.782,0,0,1-6.766,0l-1.356-2.711Zm-28.44-26.484a29.219,29.219,0,0,0,12.08,9.75V116.8a5.019,5.019,0,0,0-3.5,4.777v2.259a5.017,5.017,0,0,0,5.011,5.011h.433l2.343,4.687a8.2,8.2,0,0,0,14.67,0l2.344-4.687h.433a5.017,5.017,0,0,0,5.011-5.011v-2.259a5.019,5.019,0,0,0-3.5-4.777v-4.686a29.169,29.169,0,0,0,12.091-9.75h27.139v55.526a.234.234,0,0,1-.234.235H24.807a.235.235,0,0,1-.235-.235V102.361Zm-2.607-4.418H38.77V90.713h8.007A29.181,29.181,0,0,0,49.116,97.943Zm10.191,75.25H91.543v1.463a2.736,2.736,0,0,1-2.733,2.734H62.04a2.737,2.737,0,0,1-2.733-2.734ZM137.974,186H12.875c-6.594,0-9.668-7-8.017-10.429a4.228,4.228,0,0,1,3.788-2.381H54.889v1.463a7.16,7.16,0,0,0,7.151,7.152H88.809a7.16,7.16,0,0,0,7.151-7.152v-1.463H142.2a4.229,4.229,0,0,1,3.789,2.381C147.61,178.933,144.655,186,137.974,186Z" transform="translate(-0.001 -56.704)"/>
      </g>
    </g>
    <g id="Group_58" data-name="Group 58" transform="translate(104.584 22.309)">
      <g id="Group_57" data-name="Group 57">
        <path id="Path_62" data-name="Path 62" class="cls-1" d="M363.9,73.4a2.209,2.209,0,0,0-3.017-.808l-4.792,2.767a2.209,2.209,0,1,0,2.209,3.826l4.792-2.767A2.209,2.209,0,0,0,363.9,73.4Z" transform="translate(-354.982 -72.294)"/>
      </g>
    </g>
    <g id="Group_60" data-name="Group 60" transform="translate(91.326 7.025)">
      <g id="Group_59" data-name="Group 59">
        <path id="Path_63" data-name="Path 63" class="cls-1" d="M316.061,20.713a2.208,2.208,0,0,0-3.017.808l-2.767,4.792a2.209,2.209,0,0,0,3.826,2.209l2.767-4.792A2.209,2.209,0,0,0,316.061,20.713Z" transform="translate(-309.98 -20.417)"/>
      </g>
    </g>
    <g id="Group_62" data-name="Group 62" transform="translate(73.216 1.432)">
      <g id="Group_61" data-name="Group 61">
        <path id="Path_64" data-name="Path 64" class="cls-1" d="M250.72,1.432a2.209,2.209,0,0,0-2.209,2.209V9.174a2.209,2.209,0,0,0,4.418,0V3.641A2.209,2.209,0,0,0,250.72,1.432Z" transform="translate(-248.511 -1.432)"/>
      </g>
    </g>
    <g id="Group_64" data-name="Group 64" transform="translate(52.338 7.025)">
      <g id="Group_63" data-name="Group 63">
        <path id="Path_65" data-name="Path 65" class="cls-1" d="M184.536,26.314l-2.767-4.792a2.209,2.209,0,0,0-3.826,2.209l2.767,4.792a2.209,2.209,0,1,0,3.826-2.209Z" transform="translate(-177.647 -20.417)"/>
      </g>
    </g>
    <g id="Group_66" data-name="Group 66" transform="translate(37.055 22.309)">
      <g id="Group_65" data-name="Group 65">
        <path id="Path_66" data-name="Path 66" class="cls-1" d="M133.878,75.357l-4.792-2.766a2.209,2.209,0,0,0-2.209,3.826l4.792,2.767a2.209,2.209,0,0,0,2.209-3.826Z" transform="translate(-125.772 -72.294)"/>
      </g>
    </g>
  </g>
</svg>
