<svg id="linkedin_1_" data-name="linkedin (1)" xmlns="http://www.w3.org/2000/svg" viewBox="0 0 28.803 28.803">
  <defs>
    <style>
      .cls-1 {
        fill: #fff;
      }

      .cls-2 {
        fill: #212b37;
      }
    </style>
  </defs>
  <path id="Path_5" data-name="Path 5" class="cls-1" d="M14.4,0A14.4,14.4,0,1,1,0,14.4,14.4,14.4,0,0,1,14.4,0Z"/>
  <path id="Path_6" data-name="Path 6" class="cls-2" d="M81.947,85.417h2.7V76.429h-2.7Zm10.506-9.3a4.048,4.048,0,0,0-3.311,1.533V76.4H86.436v9.018h2.707V80.54A2.141,2.141,0,0,1,91.27,78.5c1.183,0,1.474,1.005,1.474,2.011v4.9h2.7v-5.1C95.441,76.771,93.763,76.117,92.453,76.117Zm-9.17-.587a1.35,1.35,0,1,0-1.35-1.35A1.351,1.351,0,0,0,83.283,75.53Z" transform="translate(-73.832 -65.629)"/>
</svg>
