<svg xmlns="http://www.w3.org/2000/svg" viewBox="0 0 150 150">
  <defs>
    <style>
      .cls-1 {
        fill: #fff;
      }
    </style>
  </defs>
  <g id="_013-tools" data-name="013-tools" transform="translate(0 -0.001)">
    <g id="Group_22" data-name="Group 22" transform="translate(0 0.001)">
      <path id="Path_44" data-name="Path 44" class="cls-1" d="M148.52,23.825,137.89,13.2a2.2,2.2,0,0,0-3.108,3.108l4.719,4.719-50.6,50.6L71.99,54.721l6.393-6.393,4.458,4.458a2.2,2.2,0,1,0,3.108-3.108L81.49,45.22l7.945-7.945,4.458,4.458A2.2,2.2,0,0,0,97,38.625l-4.458-4.458,7.945-7.945,4.458,4.458a2.2,2.2,0,0,0,3.108-3.108L103.6,23.114l7.945-7.945L116,19.626a2.2,2.2,0,1,0,3.108-3.108l-4.458-4.458,7.472-7.472a.669.669,0,0,1,.946,0l4.463,4.463a2.2,2.2,0,1,0,3.107-3.108l-4.463-4.462a5.071,5.071,0,0,0-7.162,0L68.883,51.613,41.551,24.282a2.323,2.323,0,0,0-.73-.484L16.7,13.459a3.23,3.23,0,0,0-4.24,4.239h0l6.227,14.527L22.8,41.818a2.325,2.325,0,0,0,.484.73L50.615,69.88,1.485,119.01a5.061,5.061,0,0,0,0,7.162l22.344,22.344a5.061,5.061,0,0,0,7.162,0l49.13-49.13,42.657,42.657a6.647,6.647,0,0,0,9.381,0l8.887-8.887a6.641,6.641,0,0,0,0-9.381L98.389,81.119,148.52,30.987A5.07,5.07,0,0,0,148.52,23.825ZM21.448,27.51l-3.8-8.864,8.864,3.8Zm1.865,4.351,7.55-7.55,5.285,2.266L25.578,37.146ZM21.023,139.5,4.592,123.065a.669.669,0,0,1,0-.947l7.472-7.472,4.458,4.458A2.2,2.2,0,0,0,19.63,116l-4.458-4.458,7.945-7.945,4.458,4.458a2.2,2.2,0,1,0,3.108-3.108l-4.458-4.458L34.17,92.54,38.628,97a2.2,2.2,0,1,0,3.108-3.108l-4.458-4.458,7.945-7.946,4.458,4.458a2.2,2.2,0,0,0,3.108-3.108l-4.458-4.458,5.391-5.391L70.627,89.893Zm6.86,5.912a.657.657,0,0,1-.473.2.68.68,0,0,1-.1-.008.654.654,0,0,1-.369-.188l-2.8-2.8L73.736,93l3.278,3.278Zm110.055-18.525a2.241,2.241,0,0,1,0,3.166l-8.887,8.887a2.251,2.251,0,0,1-3.165,0l-7.942-7.943L130,118.941ZM121.544,110.49l5.343,5.343-12.052,12.052-5.343-5.343Zm-3.108-3.108-4.472,4.472L85.681,83.571a2.2,2.2,0,1,0-3.108,3.108l28.284,28.284-4.472,4.472L27.945,40.995l4.472-4.472,42.9,42.9A2.2,2.2,0,1,0,78.43,76.32l-42.9-42.9L40,28.943Zm26.975-79.5L95.281,78.011,92,74.733l50.6-50.6,2.8,2.8A.67.67,0,0,1,145.412,27.88Z" transform="translate(0 -0.001)"/>
    </g>
  </g>
</svg>
